<?xml version="1.0" encoding="UTF-8"?>
<svg id="Layer_2" data-name="Layer 2" xmlns="http://www.w3.org/2000/svg" viewBox="0 0 1000 1000">
  <defs>
    <style>
      .cls-1 {
        fill: #353638;
      }

      .cls-2 {
        fill: #88c220;
      }

      .cls-3 {
        fill: #fff;
      }
    </style>
  </defs>
  <g id="Layer_1-2" data-name="Layer 1">
    <g>
      <rect class="cls-3" width="1000" height="1000" rx="168.49" ry="168.49"/>
      <g>
        <path class="cls-2" d="M565.53,435.12l-59.49-72.2c-30.96-37.58-66.8-68.43-106.72-97.07l3.01-4.77c54.35,27.5,102.34,64.86,140.98,112.61l21.1-18.72,81.32-67.16c78.93-45.07,179.33-61.69,258.54-9.39-60.54-6.96-112.29,5.26-162.21,34.62-40.9,23.67-76.54,54.5-108.01,89.85l-47.09,58.77-21.43-26.55Z"/>
        <g>
          <path class="cls-1" d="M908.14,724.21c-136.71,62.96-275.1,14.97-367.39-99.27l-188.1-232.82c-24.34-30.13-55.35-52.36-86.68-73.82-49.38-33.83-113.38-53.3-174.1-42.54,109.22-52.55,234.57-27.27,320.82,56.48,54.32,52.74,104.65,107.57,146.52,171.36l105.18,124.92c40.13,47.67,94.84,80.42,155.41,93.45,29.92,6.44,56.74,5.01,88.34,2.25Z"/>
          <path class="cls-2" d="M423.94,661.28c-25.03,23.33-49.28,43.43-78.44,59.4-77.18,42.27-163.15,44.25-241.17,6.55,36.45,1.88,70.23-2.15,104.7-11.67,36.88-14.44,72.3-31.54,99.54-60.93l103.32-111.43c40.4,49.85,80.88,97.33,126.17,141.85l54.57,49.42c-18.69-2.72-31.89-14.23-46.26-23.97-33.32-22.59-61.09-49.06-90.08-79.4l-32.36,30.17Z"/>
        </g>
      </g>
    </g>
  </g>
</svg>