<?xml version="1.0" encoding="UTF-8"?>
<svg id="Layer_2" data-name="Layer 2" xmlns="http://www.w3.org/2000/svg" viewBox="0 0 889.78 259.32">
  <defs>
    <style>
      .cls-1 {
        fill: #353638;
      }

      .cls-2 {
        fill: #88c220;
      }
    </style>
  </defs>
  <g id="Layer_1-2" data-name="Layer 1">
    <g>
      <path class="cls-1" d="M469.53,222.24c-1.16.5-4.09-.15-4.1-1.25l-.18-18.81h-27.46s-.24,19.23-.24,19.23c-.01,1.04-3.91,1.12-4.33.42l-.03-42.17,4.49.19.05,18.97,27.7.06-.06-19.06,4.15-.45v42.87Z"/>
      <path class="cls-1" d="M527.8,198.98l3.19.04c.56,0-.47,3.06-1.03,3.06l-21.19.04-.2,16.85,26.03.21.33,3.25-30.78.24.08-43.37h27.04c.65,0,2.42.63,2.79.78.54.22-.78,2.47-1.39,2.5l-23.91-.02-.18,16.2,19.22.23Z"/>
      <path class="cls-1" d="M593.43,210.66l-24.59-.04-4.33,10c-.55,1.28-3.49,2.3-5.08,1.38l18.25-40.17c.51-1.13,2.63-2.98,3.75-2.79s2.72,2.03,3.3,3.31l18.03,39.79c-.91.66-4.53.07-5.08-1.27l-4.25-10.21ZM591.79,207.34l-10.75-23.69-10.82,23.69h21.57Z"/>
      <path class="cls-1" d="M775.5,221.86l-3.9.82-.13-20.53-27.7-.11-.34,20.33-3.99-.23.03-42.09,4.04-.82.08,19.62,27.94-.08-.04-18.32c0-.88,3.52-1.1,3.89-.63l.1,42.04Z"/>
      <path class="cls-1" d="M696.38,222.02l-4.11.27-.08-39.67-14.55-.12c-.7,0-1.19-2.52-.97-3.18l34.84.02c-.36,1.65-.87,3.21-1.36,3.22l-13.69.08-.1,39.39Z"/>
      <path class="cls-1" d="M635.06,219.15h21.37c.7,0,2.48.56,3.06.74s-.89,2.73-1.49,2.73h-26.86s-.15-43.18-.15-43.18l3.9.47.16,39.25Z"/>
      <path class="cls-2" d="M729.24,154.38l-50.34-.29,18.89-94.55.78-5.41,16.81-.32c14.98-.28,30.01-1.21,44.27,2.36,14.22,3.56,25.64,13.4,29.16,27.56,5.4,21.77-2.81,45.45-20.92,58.53-11.28,8.15-24.44,12.21-38.65,12.12ZM767.27,101.27c.6-8.26-.16-16.35-6.35-21.89-3.22-2.88-10.73-6.81-15.09-6.88l-28.16-.44-12.79,63.49c11.49.47,21.95,1.19,32.71-.45,16.98-2.59,28.41-16.49,29.68-33.83Z"/>
      <path class="cls-2" d="M509.96,154.07c-11.68,2.93-23.53,2.52-34.5-.19-20.3-5.02-32.63-22.58-31.96-43.29.83-25.48,16.24-47.42,40.59-55.35,15.4-5.01,31.85-4.87,46.52,1.52s23.45,20.13,24.21,36.24c1.35,28.72-16.01,53.82-44.86,61.07ZM494.66,137.03c20.13-.11,34.59-14.2,36.92-32.96,1.18-9.5.76-19.74-7.15-26.33-10.51-8.74-25.41-8.63-37.47-3.02-19.12,8.89-25.57,37.27-16.47,51.39,4.98,7.73,14.34,10.97,24.17,10.92Z"/>
      <path class="cls-2" d="M396.45,154.29l-15.97-28.21-20.91-.07-6.24,28.47-21.93-.53,19.88-100.07h48.77c5.73-.01,11.34,2.39,16.16,4.83,5.64,2.87,10.6,7.05,12.87,13.13,8.12,21.82-3.94,44.61-26.56,51.36l16.87,30.81-22.95.29ZM390.09,107.49c11.27-.22,17.81-8.73,18.68-18.86.76-8.79-4.91-16.34-14.4-16.38l-24.4-.12-2.83,15.36-3.29,20.51,26.23-.52Z"/>
      <path class="cls-2" d="M636.7,132.79l-48.02-.41-13.31,21.55-23.79.26,64.09-99.09c2.33-2.43,8.79-1.61,11.59-1.5l11.75.46,24.33,98.88c-7.6,1.37-14.19,1.5-22.15,1.49l-4.49-21.63ZM632.55,115.47l-9.16-40.04-24.46,40,33.62.03Z"/>
      <path class="cls-2" d="M830.58,155.74c-12.14-1.05-23.57-3.37-33.7-10.55l8.68-17.18c14.76,11.01,45.75,15.06,53.31,2.66,1.07-1.76,1.42-6.5.58-8.33s-4.18-4.3-6.44-5.06l-25.88-8.63c-6.69-2.23-14.34-8.26-16.27-15.22-4.88-17.55,6.8-33.42,23.05-37.94,7.29-2.03,14.01-3.95,21.86-3.72,12.18.35,23.24,1.66,34,9.03l-7.94,16.4c-18.34-11.51-49.16-9.16-49.46,4.72-.09,3.92,2.6,8.43,6.92,9.82l26.61,8.59c10.02,3.24,17.25,12.13,16.76,22.16-1.26,26.02-27.88,35.35-52.09,33.25Z"/>
      <path class="cls-2" d="M241.76,96.54l-30.36-36.85c-15.8-19.18-34.1-34.93-54.47-49.55l1.54-2.44c27.74,14.04,52.24,33.1,71.96,57.48l10.77-9.55,41.5-34.28c40.29-23,91.53-31.49,131.96-4.79-30.9-3.55-57.31,2.69-82.79,17.67-20.88,12.08-39.07,27.81-55.13,45.86l-24.04,29.99-10.94-13.55Z"/>
      <g>
        <path class="cls-1" d="M416.63,244.1c-69.78,32.14-140.41,7.64-187.52-50.67l-96.01-118.83c-12.42-15.38-28.25-26.72-44.24-37.68C63.66,19.65,31,9.71,0,15.2,55.74-11.62,119.72,1.29,163.75,44.03c27.72,26.92,53.41,54.9,74.78,87.46l53.68,63.76c20.48,24.33,48.4,41.05,79.32,47.7,15.27,3.29,28.96,2.56,45.09,1.15Z"/>
        <path class="cls-2" d="M169.5,211.98c-12.77,11.91-25.15,22.17-40.03,30.32-39.39,21.57-83.27,22.59-123.09,3.34,18.6.96,35.85-1.1,53.44-5.96,18.82-7.37,36.9-16.1,50.81-31.1l52.73-56.87c20.62,25.45,41.28,49.68,64.4,72.4l27.85,25.23c-9.54-1.39-16.28-7.26-23.61-12.23-17-11.53-31.18-25.04-45.98-40.53l-16.52,15.4Z"/>
      </g>
    </g>
  </g>
</svg>